<svg width="60" height="60" viewBox="0 0 60 60" fill="none" xmlns="http://www.w3.org/2000/svg">
<circle cx="30" cy="30" r="30" fill="white"/>
<path d="M42.3214 28.3214H33.2143C32.9184 28.3214 32.6786 28.0816 32.6786 27.7857V18.6786C32.6786 17.1993 31.4792 16 30 16C28.5208 16 27.3214 17.1993 27.3214 18.6786V27.7857C27.3214 28.0816 27.0816 28.3214 26.7857 28.3214H17.6786C16.1993 28.3214 15 29.5208 15 31C15 32.4792 16.1993 33.6786 17.6786 33.6786H26.7857C27.0816 33.6786 27.3214 33.9184 27.3214 34.2143V43.3214C27.3214 44.8007 28.5208 46 30 46C31.4792 46 32.6786 44.8007 32.6786 43.3214V34.2143C32.6786 33.9184 32.9184 33.6786 33.2143 33.6786H42.3214C43.8007 33.6786 45 32.4792 45 31C45 29.5208 43.8007 28.3214 42.3214 28.3214Z" fill="#3D6771"/>
</svg>
