<svg width="40" height="40" viewBox="0 0 40 40" fill="none" xmlns="http://www.w3.org/2000/svg">
<g clip-path="url(#clip0)">
<path d="M28.2143 18.8809H22.1429C21.9456 18.8809 21.7857 18.721 21.7857 18.5238V12.4524C21.7857 11.4662 20.9862 10.6667 20 10.6667C19.0138 10.6667 18.2143 11.4662 18.2143 12.4524V18.5238C18.2143 18.721 18.0544 18.8809 17.8571 18.8809H11.7857C10.7996 18.8809 10 19.6805 10 20.6667C10 21.6528 10.7996 22.4524 11.7857 22.4524H17.8571C18.0544 22.4524 18.2143 22.6123 18.2143 22.8095V28.8809C18.2143 29.8671 19.0138 30.6667 20 30.6667C20.9862 30.6667 21.7857 29.8671 21.7857 28.8809V22.8095C21.7857 22.6123 21.9456 22.4524 22.1429 22.4524H28.2143C29.2004 22.4524 30 21.6528 30 20.6667C30 19.6805 29.2004 18.8809 28.2143 18.8809Z" fill="#01D1FF"/>
</g>
<defs>
<clipPath id="clip0">
<rect x="10" y="10.6667" width="26.6667" height="26.6667" fill="white"/>
</clipPath>
</defs>
</svg>
