<svg width="75" height="65" viewBox="0 0 75 65" fill="none" xmlns="http://www.w3.org/2000/svg">
<g clip-path="url(#clip0)">
<path d="M10.3796 16.6682C14.9101 16.6682 18.5827 13.4852 18.5827 9.55878C18.5827 5.63238 14.9101 2.4494 10.3796 2.4494C5.84915 2.4494 2.17649 5.63238 2.17649 9.55878C2.17649 13.4852 5.84915 16.6682 10.3796 16.6682Z" fill="#4E8ED9"/>
<path d="M10.3796 40.0275C14.9101 40.0275 18.5827 36.8446 18.5827 32.9182C18.5827 28.9918 14.9101 25.8088 10.3796 25.8088C5.84915 25.8088 2.17649 28.9918 2.17649 32.9182C2.17649 36.8446 5.84915 40.0275 10.3796 40.0275Z" fill="#4E8ED9"/>
<path d="M10.3796 63.3869C14.9101 63.3869 18.5827 60.2039 18.5827 56.2775C18.5827 52.3511 14.9101 49.1682 10.3796 49.1682C5.84915 49.1682 2.17649 52.3511 2.17649 56.2775C2.17649 60.2039 5.84915 63.3869 10.3796 63.3869Z" fill="#4E8ED9"/>
<path d="M36.1609 2.4494H64.2859C68.8163 2.4494 72.489 5.63237 72.489 9.55878C72.489 13.4852 68.8163 16.6682 64.2859 16.6682H36.1609C31.6304 16.6682 27.9577 13.4852 27.9577 9.55878C27.9577 5.63237 31.6304 2.4494 36.1609 2.4494Z" fill="#01D1FF"/>
<path d="M36.1609 25.8088H64.2859C68.8163 25.8088 72.489 28.9917 72.489 32.9182C72.489 36.8446 68.8163 40.0275 64.2859 40.0275H36.1609C31.6304 40.0275 27.9577 36.8446 27.9577 32.9182C27.9577 28.9917 31.6304 25.8088 36.1609 25.8088Z" fill="#01D1FF"/>
<path d="M36.1609 49.1682H64.2859C68.8163 49.1682 72.489 52.3511 72.489 56.2775C72.489 60.2039 68.8163 63.3869 64.2859 63.3869H36.1609C31.6304 63.3869 27.9577 60.2039 27.9577 56.2775C27.9577 52.3511 31.6304 49.1682 36.1609 49.1682Z" fill="#15BCF1"/>
<path d="M18.5827 9.55878C18.5827 13.4854 14.9104 16.6682 10.3796 16.6682C9.3469 16.6682 8.35959 16.5031 7.44992 16.201C10.5349 15.179 12.7234 12.5904 12.7234 9.55878C12.7234 6.52714 10.5349 3.93856 7.44992 2.91659C8.35959 2.61444 9.3469 2.4494 10.3796 2.4494C14.9104 2.4494 18.5827 5.63212 18.5827 9.55878Z" fill="#15BCF1"/>
<path d="M18.5827 32.9182C18.5827 36.8448 14.9104 40.0275 10.3796 40.0275C9.3469 40.0275 8.35959 39.8625 7.44992 39.5603C10.5349 38.5384 12.7234 35.9498 12.7234 32.9182C12.7234 29.8865 10.5349 27.2979 7.44992 26.276C8.35959 25.9738 9.3469 25.8088 10.3796 25.8088C14.9104 25.8088 18.5827 28.9915 18.5827 32.9182Z" fill="#15BCF1"/>
<path d="M18.5827 56.2775C18.5827 60.2042 14.9104 63.3869 10.3796 63.3869C9.3469 63.3869 8.35959 63.2219 7.44992 62.9197C10.5349 61.8977 12.7234 59.3092 12.7234 56.2775C12.7234 53.2459 10.5349 50.6573 7.44992 49.6353C8.35959 49.3332 9.3469 49.1682 10.3796 49.1682C14.9104 49.1682 18.5827 52.3509 18.5827 56.2775Z" fill="#15BCF1"/>
<path d="M72.489 9.55878C72.489 11.5215 71.5705 13.2988 70.0866 14.5861C68.6013 15.8722 66.5505 16.6682 64.2859 16.6682H58.4265C60.6911 16.6682 62.7419 15.8722 64.2273 14.5861C65.7112 13.2988 66.6296 11.5215 66.6296 9.55878C66.6296 5.63212 62.9572 2.4494 58.4265 2.4494H64.2859C68.8166 2.4494 72.489 5.63212 72.489 9.55878Z" fill="#EF1919"/>
<path d="M72.489 32.9182C72.489 34.8808 71.5705 36.6582 70.0866 37.9455C68.6013 39.2315 66.5505 40.0275 64.2859 40.0275H58.4265C60.6911 40.0275 62.7419 39.2315 64.2273 37.9455C65.7112 36.6582 66.6296 34.8808 66.6296 32.9182C66.6296 28.9915 62.9572 25.8088 58.4265 25.8088H64.2859C68.8166 25.8088 72.489 28.9915 72.489 32.9182Z" fill="#EF1919"/>
<path d="M72.489 56.2775C72.489 58.2402 71.5705 60.0176 70.0866 61.3049C68.6013 62.5909 66.5505 63.3869 64.2859 63.3869H58.4265C60.6911 63.3869 62.7419 62.5909 64.2273 61.3049C65.7112 60.0176 66.6296 58.2402 66.6296 56.2775C66.6296 52.3509 62.9572 49.1682 58.4265 49.1682H64.2859C68.8166 49.1682 72.489 52.3509 72.489 56.2775Z" fill="#FF2E00"/>
<path d="M10.3796 18.6994C4.56404 18.6994 -0.167263 14.5989 -0.167263 9.55878C-0.167263 4.51861 4.56404 0.418152 10.3796 0.418152C16.1952 0.418152 20.9265 4.51861 20.9265 9.55878C20.9265 14.5989 16.1952 18.6994 10.3796 18.6994ZM10.3796 4.48065C7.14875 4.48065 4.52024 6.7587 4.52024 9.55878C4.52024 12.3589 7.14875 14.6369 10.3796 14.6369C13.6105 14.6369 16.239 12.3589 16.239 9.55878C16.239 6.7587 13.6105 4.48065 10.3796 4.48065Z" fill="black"/>
<path d="M10.3796 42.0588C4.56404 42.0588 -0.167263 37.9583 -0.167263 32.9182C-0.167263 27.878 4.56404 23.7775 10.3796 23.7775C16.1952 23.7775 20.9265 27.878 20.9265 32.9182C20.9265 37.9583 16.1952 42.0588 10.3796 42.0588ZM10.3796 27.84C7.14875 27.84 4.52024 30.1181 4.52024 32.9182C4.52024 35.7182 7.14875 37.9963 10.3796 37.9963C13.6105 37.9963 16.239 35.7182 16.239 32.9182C16.239 30.1181 13.6105 27.84 10.3796 27.84Z" fill="black"/>
<path d="M10.3796 65.4182C4.56404 65.4182 -0.167263 61.3177 -0.167263 56.2775C-0.167263 51.2374 4.56404 47.1369 10.3796 47.1369C16.1952 47.1369 20.9265 51.2374 20.9265 56.2775C20.9265 61.3177 16.1952 65.4182 10.3796 65.4182ZM10.3796 51.1994C7.14875 51.1994 4.52024 53.4774 4.52024 56.2775C4.52024 59.0776 7.14875 61.3557 10.3796 61.3557C13.6105 61.3557 16.239 59.0776 16.239 56.2775C16.239 53.4774 13.6105 51.1994 10.3796 51.1994Z" fill="black"/>
<path d="M64.2859 18.6994H36.1609C30.3453 18.6994 25.614 14.5989 25.614 9.55878C25.614 4.51861 30.3453 0.418152 36.1609 0.418152H64.2859C70.1014 0.418152 74.8327 4.51861 74.8327 9.55878C74.8327 14.5989 70.1014 18.6994 64.2859 18.6994ZM36.1609 4.48065C32.93 4.48065 30.3015 6.7587 30.3015 9.55878C30.3015 12.3589 32.93 14.6369 36.1609 14.6369H64.2859C67.5167 14.6369 70.1452 12.3589 70.1452 9.55878C70.1452 6.7587 67.5167 4.48065 64.2859 4.48065H36.1609Z" fill="#040404"/>
<path d="M64.2859 42.0588H36.1609C30.3453 42.0588 25.614 37.9583 25.614 32.9182C25.614 27.878 30.3453 23.7775 36.1609 23.7775H64.2859C70.1014 23.7775 74.8327 27.878 74.8327 32.9182C74.8327 37.9583 70.1014 42.0588 64.2859 42.0588ZM36.1609 27.84C32.93 27.84 30.3015 30.1181 30.3015 32.9182C30.3015 35.7182 32.93 37.9963 36.1609 37.9963H64.2859C67.5167 37.9963 70.1452 35.7182 70.1452 32.9182C70.1452 30.1181 67.5167 27.84 64.2859 27.84H36.1609Z" fill="black"/>
<path d="M64.2859 65.4182H36.1609C30.3453 65.4182 25.614 61.3177 25.614 56.2775C25.614 51.2374 30.3453 47.1369 36.1609 47.1369H64.2859C70.1014 47.1369 74.8327 51.2374 74.8327 56.2775C74.8327 61.3177 70.1014 65.4182 64.2859 65.4182ZM36.1609 51.1994C32.93 51.1994 30.3015 53.4774 30.3015 56.2775C30.3015 59.0776 32.93 61.3557 36.1609 61.3557H64.2859C67.5167 61.3557 70.1452 59.0776 70.1452 56.2775C70.1452 53.4774 67.5167 51.1994 64.2859 51.1994H36.1609Z" fill="black"/>
</g>
<defs>
<clipPath id="clip0">
<rect width="75" height="65" fill="white"/>
</clipPath>
</defs>
</svg>
