<?xml version="1.0" encoding="iso-8859-1"?>
<!-- Generator: Adobe Illustrator 19.0.0, SVG Export Plug-In . SVG Version: 6.00 Build 0)  -->
<svg version="1.1" id="Capa_1" xmlns="http://www.w3.org/2000/svg" xmlns:xlink="http://www.w3.org/1999/xlink" x="0px" y="0px"
	 viewBox="0 0 352 352" style="enable-background:new 0 0 352 352;" xml:space="preserve">
<g>
	<g>
		<g>
			<path d="M44.688,288v32v32h32v-32h32v32h32v-32v-32v-64h-96V288z M76.688,256h32v32h-32V256z"/>
			<path d="M76.688,96h32v32h32V96V64V0h-96v64v32v32h32V96z M76.688,32h32v32h-32V32z"/>
			<rect x="12.688" y="160" width="160" height="32"/>
			<polygon points="284.688,289.368 284.688,62.632 316.688,94.632 339.312,72 268.688,1.368 198.064,72 220.688,94.632 
				252.688,62.632 252.688,289.368 220.688,257.368 198.064,280 268.688,350.632 339.312,280 316.688,257.368 			"/>
		</g>
	</g>
</g>
<g>
</g>
<g>
</g>
<g>
</g>
<g>
</g>
<g>
</g>
<g>
</g>
<g>
</g>
<g>
</g>
<g>
</g>
<g>
</g>
<g>
</g>
<g>
</g>
<g>
</g>
<g>
</g>
<g>
</g>
</svg>
