<svg width="35" height="36" viewBox="0 0 35 36" fill="none" xmlns="http://www.w3.org/2000/svg">
<g clip-path="url(#clip0)">
<path d="M32.8402 0.109442C32.3473 -0.144995 31.7546 0.0609818 31.5086 0.57089L22.4565 19.4644L20.6835 18.5385C19.2154 17.772 17.4257 18.3961 16.6907 19.9229L16.2468 20.8469L26.888 26.4042L27.3318 25.4797C28.0648 23.9533 27.479 22.0895 26.0041 21.3174L24.2308 20.3912L33.2828 1.49785C33.5278 0.986911 33.3293 0.365879 32.8402 0.109442Z" fill="#F42121"/>
<path d="M11.5047 35.2945C12.0523 35.2945 12.4964 34.8316 12.4964 34.2606C12.4964 33.6894 12.0523 33.2265 11.5047 33.2265C10.957 33.2265 10.5129 33.6894 10.5129 34.2606C10.5129 34.8316 10.957 35.2945 11.5047 35.2945Z" fill="#F42121"/>
<path d="M1.58787 29.0904C2.13556 29.0904 2.57955 28.6275 2.57955 28.0564C2.57955 27.4854 2.13556 27.0223 1.58787 27.0223C1.04018 27.0223 0.596191 27.4854 0.596191 28.0564C0.596191 28.6275 1.04018 29.0904 1.58787 29.0904Z" fill="#F42121"/>
<path d="M5.5546 31.1584C6.10229 31.1584 6.54629 30.6955 6.54629 30.1244C6.54629 29.5533 6.10229 29.0904 5.5546 29.0904C5.00692 29.0904 4.56293 29.5533 4.56293 30.1244C4.56293 30.6955 5.00692 31.1584 5.5546 31.1584Z" fill="#F42121"/>
<path d="M7.53795 33.2265H3.57123C3.02409 33.2265 2.57955 32.763 2.57955 32.1925C2.57955 31.6209 2.13601 31.1584 1.58787 31.1584C1.03974 31.1584 0.596191 31.6209 0.596191 32.1925C0.596191 33.903 1.93073 35.2945 3.57123 35.2945H7.53795C8.08608 35.2945 8.52963 34.832 8.52963 34.2605C8.52963 33.689 8.08608 33.2265 7.53795 33.2265Z" fill="#F42121"/>
<path d="M7.24936 26.7517C6.81547 26.8083 6.46877 27.1547 6.39519 27.603C6.32162 28.0524 6.53754 28.4987 6.92786 28.7027L11.6665 31.1766C12.5215 31.623 13.4667 31.8007 14.3887 31.6988C14.2802 32.1571 14.4865 32.6489 14.9078 32.87L19.3414 35.1855C19.714 35.3771 20.1459 35.3096 20.4444 35.034C20.5996 34.8899 23.9772 31.7213 25.9516 28.229L15.2676 22.6494C12.8737 25.9658 7.31011 26.7435 7.24936 26.7517Z" fill="#F42121"/>
</g>
<defs>
<clipPath id="clip0">
<rect x="0.596191" width="33.4474" height="36" fill="white"/>
</clipPath>
</defs>
</svg>
